<mxfile host="app.diagrams.net" modified="2024-05-19T16:33:34.657Z" agent="Mozilla/5.0 (X11; Linux x86_64; rv:125.0) Gecko/20100101 Firefox/125.0" etag="lWr3HLjSbE-wuW0kmLTI" version="24.4.4" type="github">
  <diagram name="Page-1" id="i_eUpqizONlaqFvOrQ0I">
    <mxGraphModel dx="1221" dy="765" grid="1" gridSize="10" guides="1" tooltips="1" connect="1" arrows="1" fold="1" page="1" pageScale="1" pageWidth="850" pageHeight="1100" math="0" shadow="0">
      <root>
        <mxCell id="0" />
        <mxCell id="1" parent="0" />
        <mxCell id="nEjG_1o9G4ETn9ffuzNd-26" value="" style="group" vertex="1" connectable="0" parent="1">
          <mxGeometry x="40" y="200" width="190" height="85" as="geometry" />
        </mxCell>
        <mxCell id="nEjG_1o9G4ETn9ffuzNd-15" style="edgeStyle=orthogonalEdgeStyle;rounded=0;orthogonalLoop=1;jettySize=auto;html=1;exitX=1;exitY=0.75;exitDx=0;exitDy=0;entryX=0;entryY=0.75;entryDx=0;entryDy=0;fillColor=#f8cecc;strokeColor=#b85450;" edge="1" parent="nEjG_1o9G4ETn9ffuzNd-26" source="nEjG_1o9G4ETn9ffuzNd-3" target="nEjG_1o9G4ETn9ffuzNd-11">
          <mxGeometry relative="1" as="geometry" />
        </mxCell>
        <mxCell id="nEjG_1o9G4ETn9ffuzNd-3" value="Database" style="strokeColor=#dddddd;shadow=0;strokeWidth=1;rounded=1;absoluteArcSize=1;arcSize=2;labelPosition=center;verticalLabelPosition=middle;align=center;verticalAlign=bottom;spacingLeft=0;fontColor=#999999;fontSize=12;whiteSpace=wrap;spacingBottom=2;html=1;" vertex="1" parent="nEjG_1o9G4ETn9ffuzNd-26">
          <mxGeometry width="70" height="85" as="geometry" />
        </mxCell>
        <mxCell id="nEjG_1o9G4ETn9ffuzNd-4" value="" style="sketch=0;dashed=0;connectable=0;html=1;fillColor=#757575;strokeColor=none;shape=mxgraph.gcp2.database;part=1;" vertex="1" parent="nEjG_1o9G4ETn9ffuzNd-3">
          <mxGeometry x="0.5" width="50" height="45" relative="1" as="geometry">
            <mxPoint x="-25" y="12.5" as="offset" />
          </mxGeometry>
        </mxCell>
        <mxCell id="nEjG_1o9G4ETn9ffuzNd-16" style="edgeStyle=orthogonalEdgeStyle;rounded=0;orthogonalLoop=1;jettySize=auto;html=1;exitX=0;exitY=0.25;exitDx=0;exitDy=0;entryX=1;entryY=0.25;entryDx=0;entryDy=0;fillColor=#f8cecc;strokeColor=#b85450;" edge="1" parent="nEjG_1o9G4ETn9ffuzNd-26" source="nEjG_1o9G4ETn9ffuzNd-11" target="nEjG_1o9G4ETn9ffuzNd-3">
          <mxGeometry relative="1" as="geometry" />
        </mxCell>
        <mxCell id="nEjG_1o9G4ETn9ffuzNd-11" value="Server" style="strokeColor=#dddddd;shadow=0;strokeWidth=1;rounded=1;absoluteArcSize=1;arcSize=2;labelPosition=center;verticalLabelPosition=middle;align=center;verticalAlign=bottom;spacingLeft=0;fontColor=#999999;fontSize=12;whiteSpace=wrap;spacingBottom=2;html=1;" vertex="1" parent="nEjG_1o9G4ETn9ffuzNd-26">
          <mxGeometry x="120" width="70" height="85" as="geometry" />
        </mxCell>
        <mxCell id="nEjG_1o9G4ETn9ffuzNd-12" value="" style="sketch=0;dashed=0;connectable=0;html=1;fillColor=#757575;strokeColor=none;shape=mxgraph.gcp2.storage;part=1;" vertex="1" parent="nEjG_1o9G4ETn9ffuzNd-11">
          <mxGeometry x="0.5" width="50" height="40" relative="1" as="geometry">
            <mxPoint x="-25" y="15" as="offset" />
          </mxGeometry>
        </mxCell>
        <mxCell id="nEjG_1o9G4ETn9ffuzNd-27" value="" style="group" vertex="1" connectable="0" parent="1">
          <mxGeometry x="620" y="200" width="190" height="85" as="geometry" />
        </mxCell>
        <mxCell id="nEjG_1o9G4ETn9ffuzNd-22" style="edgeStyle=orthogonalEdgeStyle;rounded=0;orthogonalLoop=1;jettySize=auto;html=1;exitX=1;exitY=0.75;exitDx=0;exitDy=0;entryX=0;entryY=0.75;entryDx=0;entryDy=0;fillColor=#dae8fc;strokeColor=#6c8ebf;" edge="1" parent="nEjG_1o9G4ETn9ffuzNd-27" source="nEjG_1o9G4ETn9ffuzNd-1" target="nEjG_1o9G4ETn9ffuzNd-13">
          <mxGeometry relative="1" as="geometry" />
        </mxCell>
        <mxCell id="nEjG_1o9G4ETn9ffuzNd-1" value="Application" style="strokeColor=#dddddd;shadow=0;strokeWidth=1;rounded=1;absoluteArcSize=1;arcSize=2;labelPosition=center;verticalLabelPosition=middle;align=center;verticalAlign=bottom;spacingLeft=0;fontColor=#999999;fontSize=12;whiteSpace=wrap;spacingBottom=2;html=1;" vertex="1" parent="nEjG_1o9G4ETn9ffuzNd-27">
          <mxGeometry width="70" height="85" as="geometry" />
        </mxCell>
        <mxCell id="nEjG_1o9G4ETn9ffuzNd-2" value="" style="sketch=0;dashed=0;connectable=0;html=1;fillColor=#757575;strokeColor=none;shape=mxgraph.gcp2.application;part=1;" vertex="1" parent="nEjG_1o9G4ETn9ffuzNd-1">
          <mxGeometry x="0.5" width="50" height="40" relative="1" as="geometry">
            <mxPoint x="-25" y="15" as="offset" />
          </mxGeometry>
        </mxCell>
        <mxCell id="nEjG_1o9G4ETn9ffuzNd-21" style="edgeStyle=orthogonalEdgeStyle;rounded=0;orthogonalLoop=1;jettySize=auto;html=1;exitX=0;exitY=0.25;exitDx=0;exitDy=0;entryX=1;entryY=0.25;entryDx=0;entryDy=0;fillColor=#dae8fc;strokeColor=#6c8ebf;" edge="1" parent="nEjG_1o9G4ETn9ffuzNd-27" source="nEjG_1o9G4ETn9ffuzNd-13" target="nEjG_1o9G4ETn9ffuzNd-1">
          <mxGeometry relative="1" as="geometry" />
        </mxCell>
        <mxCell id="nEjG_1o9G4ETn9ffuzNd-13" value="User" style="strokeColor=#dddddd;shadow=0;strokeWidth=1;rounded=1;absoluteArcSize=1;arcSize=2;labelPosition=center;verticalLabelPosition=middle;align=center;verticalAlign=bottom;spacingLeft=0;fontColor=#999999;fontSize=12;whiteSpace=wrap;spacingBottom=2;html=1;" vertex="1" parent="nEjG_1o9G4ETn9ffuzNd-27">
          <mxGeometry x="120" width="70" height="85" as="geometry" />
        </mxCell>
        <mxCell id="nEjG_1o9G4ETn9ffuzNd-14" value="" style="sketch=0;dashed=0;connectable=0;html=1;fillColor=#757575;strokeColor=none;shape=mxgraph.gcp2.users;part=1;" vertex="1" parent="nEjG_1o9G4ETn9ffuzNd-13">
          <mxGeometry x="0.5" width="50" height="31.5" relative="1" as="geometry">
            <mxPoint x="-25" y="19.25" as="offset" />
          </mxGeometry>
        </mxCell>
        <mxCell id="nEjG_1o9G4ETn9ffuzNd-28" style="edgeStyle=orthogonalEdgeStyle;rounded=0;orthogonalLoop=1;jettySize=auto;html=1;exitX=1;exitY=0.75;exitDx=0;exitDy=0;entryX=0;entryY=0.75;entryDx=0;entryDy=0;dashed=1;fillColor=#e1d5e7;strokeColor=#9673a6;" edge="1" parent="1" source="nEjG_1o9G4ETn9ffuzNd-11" target="nEjG_1o9G4ETn9ffuzNd-1">
          <mxGeometry relative="1" as="geometry" />
        </mxCell>
        <mxCell id="nEjG_1o9G4ETn9ffuzNd-30" value="Encrypted with Session Secret" style="edgeLabel;html=1;align=center;verticalAlign=middle;resizable=0;points=[];" vertex="1" connectable="0" parent="nEjG_1o9G4ETn9ffuzNd-28">
          <mxGeometry x="-0.0821" relative="1" as="geometry">
            <mxPoint x="16" y="-21" as="offset" />
          </mxGeometry>
        </mxCell>
        <mxCell id="nEjG_1o9G4ETn9ffuzNd-29" style="edgeStyle=orthogonalEdgeStyle;rounded=0;orthogonalLoop=1;jettySize=auto;html=1;exitX=0;exitY=0.25;exitDx=0;exitDy=0;entryX=1;entryY=0.25;entryDx=0;entryDy=0;dashed=1;fillColor=#e1d5e7;strokeColor=#9673a6;" edge="1" parent="1" source="nEjG_1o9G4ETn9ffuzNd-1" target="nEjG_1o9G4ETn9ffuzNd-11">
          <mxGeometry relative="1" as="geometry" />
        </mxCell>
        <mxCell id="nEjG_1o9G4ETn9ffuzNd-33" value="&lt;div align=&quot;left&quot;&gt;&lt;u&gt;&lt;b&gt;Session Handshake:&lt;/b&gt;&lt;/u&gt;&lt;/div&gt;&lt;div align=&quot;left&quot;&gt;&lt;b&gt;START&lt;/b&gt;&lt;br&gt;&lt;/div&gt;&lt;div align=&quot;left&quot;&gt;&lt;font color=&quot;#7ea6e0&quot;&gt;Client&lt;/font&gt; (public key)=&amp;gt; &lt;font color=&quot;#ea6b66&quot;&gt;Server&lt;/font&gt;&lt;/div&gt;&lt;div align=&quot;left&quot;&gt;&lt;font color=&quot;#ea6b66&quot;&gt;Server&lt;/font&gt; &lt;font color=&quot;#cda2be&quot;&gt;(session secret encrypted with public key)=&amp;gt;&lt;/font&gt; &lt;font color=&quot;#7ea6e0&quot;&gt;Client&lt;/font&gt;&lt;/div&gt;&lt;div align=&quot;left&quot;&gt;&lt;font color=&quot;#7ea6e0&quot;&gt;Client&lt;/font&gt; (session secret decrypted with private key)&lt;/div&gt;&lt;div align=&quot;left&quot;&gt;&lt;font color=&quot;#7ea6e0&quot;&gt;Client&lt;/font&gt; &lt;font color=&quot;#cda2be&quot;&gt;(certificate created using hash of public key encrypted with session secret)=&amp;gt;&lt;/font&gt; &lt;font color=&quot;#ea6b66&quot;&gt;Server&lt;/font&gt;&lt;/div&gt;&lt;div&gt;&lt;font color=&quot;#ea6b66&quot;&gt;Server&lt;/font&gt; (hash decrypted with session secret and compared to hash calculated from public key locally)&lt;/div&gt;&lt;div&gt;&lt;font color=&quot;#ea6b66&quot;&gt;Server&lt;/font&gt; &lt;font color=&quot;#cda2be&quot;&gt;(certificate created with hash of session secret encrypted with public key)=&amp;gt;&lt;/font&gt; &lt;font color=&quot;#7ea6e0&quot;&gt;Client&lt;/font&gt;&lt;/div&gt;&lt;div&gt;&lt;font color=&quot;#7ea6e0&quot;&gt;Client&lt;/font&gt; (hash decrypted with private key and compared to hash calculated from session secret locally)&lt;br&gt;&lt;/div&gt;&lt;div&gt;&lt;b&gt;END&lt;/b&gt;&lt;br&gt;&lt;/div&gt;" style="text;html=1;align=left;verticalAlign=middle;resizable=0;points=[];autosize=1;strokeColor=none;fillColor=none;" vertex="1" parent="1">
          <mxGeometry x="145" y="20" width="560" height="160" as="geometry" />
        </mxCell>
      </root>
    </mxGraphModel>
  </diagram>
</mxfile>
